<?xml version="1.0" encoding="UTF-8" standalone="no"?>
<!-- Created with Inkscape (http://www.inkscape.org/) -->

<svg
   xmlns:dc="http://purl.org/dc/elements/1.1/"
   xmlns:cc="http://creativecommons.org/ns#"
   xmlns:rdf="http://www.w3.org/1999/02/22-rdf-syntax-ns#"
   xmlns:svg="http://www.w3.org/2000/svg"
   xmlns="http://www.w3.org/2000/svg"
   xmlns:sodipodi="http://sodipodi.sourceforge.net/DTD/sodipodi-0.dtd"
   xmlns:inkscape="http://www.inkscape.org/namespaces/inkscape"
   width="105mm"
   height="148mm"
   viewBox="0 0 372.04724 524.40944"
   id="svg4421"
   version="1.1"
   inkscape:version="0.91 r13725"
   sodipodi:docname="case_top.svg">
  <defs
     id="defs4423" />
  <sodipodi:namedview
     id="base"
     pagecolor="#ffffff"
     bordercolor="#666666"
     borderopacity="1.0"
     inkscape:pageopacity="0.0"
     inkscape:pageshadow="2"
     inkscape:zoom="2.8284271"
     inkscape:cx="97.831762"
     inkscape:cy="281.67959"
     inkscape:document-units="mm"
     inkscape:current-layer="layer1"
     showgrid="false"
     inkscape:window-width="1366"
     inkscape:window-height="744"
     inkscape:window-x="0"
     inkscape:window-y="24"
     inkscape:window-maximized="1" />
  <metadata
     id="metadata4426">
    <rdf:RDF>
      <cc:Work
         rdf:about="">
        <dc:format>image/svg+xml</dc:format>
        <dc:type
           rdf:resource="http://purl.org/dc/dcmitype/StillImage" />
        <dc:title />
      </cc:Work>
    </rdf:RDF>
  </metadata>
  <g
     inkscape:label="Layer 1"
     inkscape:groupmode="layer"
     id="layer1"
     transform="translate(0,-527.95276)">
    <g
       id="g4936"
       style="fill:#00ff00;stroke-width:0.19569656;stroke-miterlimit:4;stroke-dasharray:none"
       transform="matrix(0.51099519,0,0,0.51099519,33.524624,758.68156)">
      <path
         inkscape:connector-curvature="0"
         d="m 155.542,41.034 c -1.929,-0.739 -7.897,-1.392 -11.499,-1.392 -0.508,0 -1.022,0.014 -1.529,0.037 -1.805,-2.604 -4.165,-4.903 -6.883,-6.713 -2.229,-1.479 -4.653,-2.624 -7.214,-3.409 -6.583,-7.683 -12.929,-19.072 -21.163,-22.966 0.694,1.92 1.006,5.845 0.058,9.656 C 101.202,10 95.352,1.643 78.056,0 79.404,2.744 79.244,9.102 78.211,12.148 69.409,5.37 59.632,2.214 45.333,2.946 49.542,7.316 51.6,13.003 52.311,18.528 40.61,13.866 27.685,13.121 16.146,19.153 c 7.683,3 12.242,8.594 13.785,13.391 C 17.613,31.891 6.278,37.157 0.233,48.108 6.589,47.723 12.845,49.327 17.195,53.976 9.225,56.058 1.761,64.626 0,78.31 c 3.958,-3.939 10.293,-4.397 14.247,-3.097 -3.954,4.946 -6.782,13.062 -2.751,24.568 2.709,-3.086 3.664,-5.312 8.307,-7.872 -0.419,4.897 0.676,8.735 5.39,15.531 3.548,5.117 13.562,11.572 17.838,11.936 0.189,0.088 0.663,0.684 0.973,1.082 1.48,1.877 3.956,5.018 10.651,5.018 1.674,0 3.576,-0.195 5.655,-0.578 6.324,-1.168 7.651,-5.369 8.286,-7.391 0.024,-0.078 0.053,-0.166 0.081,-0.254 2.927,-0.867 13.53,-2.371 17.197,-2.889 l 1.573,-0.223 c 0.896,-0.133 1.307,0.156 2.68,1.307 0.905,0.758 1.975,1.654 3.434,2.363 1.46,0.707 3.313,1.227 5.775,1.227 2.139,-0.004 4.521,-0.391 7.288,-1.182 7.237,-2.076 7.356,-6.424 7.434,-9.301 0.051,-1.953 0.158,-2.512 1.003,-3.076 8.632,-5.758 12.989,-11.824 15.124,-15.898 0.055,-0.109 4.971,-9.914 3.686,-15.965 2.088,-0.963 4.172,-2.041 6.217,-3.218 2.708,-1.562 5.277,-3.255 7.63,-5.032 7.416,-5.581 12.403,-12.237 12.904,-17.384 0.344,-3.541 -2.398,-5.92 -5.08,-6.948 z m -10.816,20.362 c -2.192,1.654 -4.588,3.232 -7.125,4.695 -2.456,1.416 -4.972,2.678 -7.472,3.746 -0.959,0.409 -1.9,0.781 -2.798,1.11 -2.379,0.773 -4.877,1.167 -7.432,1.167 -1.695,0 -3.378,-0.174 -4.997,-0.519 -1.24,-0.265 -2.484,0.454 -2.879,1.658 -0.393,1.207 0.181,2.519 1.34,3.041 2.288,1.034 3.302,1.295 6.024,1.554 0.833,0.08 1.656,0.121 2.449,0.121 3.225,0 5.599,-0.65 7.272,-1.346 -0.253,2.958 -1.701,7.541 -3.33,10.653 -1.867,3.562 -5.72,8.892 -13.478,14.066 -3.08,2.056 -3.16,5.082 -3.215,7.08 -0.065,2.461 -0.098,3.582 -3.836,4.656 -2.281,0.656 -4.27,0.986 -5.914,0.988 -3.117,0 -4.459,-1.125 -6.015,-2.428 -1.326,-1.113 -2.978,-2.498 -5.519,-2.498 -0.346,0 -0.698,0.027 -1.059,0.076 l -1.562,0.225 c -10.719,1.52 -17.309,2.588 -19.251,3.549 -1.33,0.658 -1.744,1.969 -2.076,3.021 -0.546,1.734 -1.063,3.371 -4.447,3.998 -1.781,0.326 -3.38,0.496 -4.751,0.496 -4.282,0 -5.48,-1.516 -6.744,-3.123 -0.97,-1.23 -2.175,-2.764 -4.464,-2.957 -2.76,-0.234 -5.305,-1.693 -9.057,-4.33 -1.984,-1.393 -4.14,-3.629 -4.897,-4.717 0.842,-1.551 1.353,-2.418 1.975,-3.669 3.248,-6.566 4.11,-8.757 17.514,-12.351 1.417,-0.38 2.756,-0.676 4.052,-0.962 6.418,-1.422 11.992,-2.654 14.204,-12.002 1.494,-0.614 3.131,-0.89 5.153,-0.89 1.228,0 2.467,0.096 3.772,0.195 1.337,0.107 2.715,0.21 4.12,0.21 5.362,0 11.651,-1.446 17.677,-12.16 0.52,-0.761 1.194,-2.119 0.636,-3.483 -0.489,-1.2 -1.819,-1.822 -3.053,-1.43 -1.351,0.429 -2.782,0.643 -4.251,0.643 -6.933,0 -11.225,-5.71 -11.225,-11.004 0,-5.582 5.428,-10.122 12.105,-10.122 2.812,0 5.551,0.826 7.709,2.331 1.021,0.708 2.403,0.556 3.245,-0.355 4.153,-4.487 10.266,-7.061 16.773,-7.061 4.718,0 9.206,1.328 12.98,3.841 2.561,1.697 4.71,3.925 6.218,6.438 0.497,0.824 1.422,1.29 2.379,1.194 1.666,-0.168 4.726,-0.158 6.346,-0.015 -0.647,0.66 -1.453,1.862 -1.514,3.178 -0.167,3.652 2.219,5.831 5.881,6.387 -1.781,2.243 -4.258,4.688 -7.463,7.105 z"
         id="path4938"
         style="fill:#00ff00;stroke-width:0.19569656;stroke-miterlimit:4;stroke-dasharray:none" />
      <path
         inkscape:connector-curvature="0"
         d="m 120.708,41.648 c -3.718,0 -6.734,2.646 -6.734,5.906 0,3.263 3.016,5.908 6.734,5.908 0.219,0 0.437,-0.007 0.652,-0.024 l 0.003,-0.002 c 1.886,-0.161 3.551,-1.008 4.655,-2.251 0.481,-0.538 0.856,-1.15 1.097,-1.814 l 0.005,0 c 0.208,-0.569 0.32,-1.182 0.32,-1.815 0,-0.5 -0.069,-0.981 -0.203,-1.446 -0.737,-2.565 -3.383,-4.462 -6.529,-4.462 z"
         id="path4940"
         style="fill:#00ff00;stroke-width:0.19569656;stroke-miterlimit:4;stroke-dasharray:none" />
    </g>
    <g
       id="g5751"
       style="fill:#00ff00;stroke-width:0.37466938;stroke-miterlimit:4;stroke-dasharray:none"
       transform="matrix(0.26690198,0,0,0.26690198,16.884903,484.98078)">
      <path
         d="m 138.645,300.208 -28.98,0 0,26.345 c 3.511,1.406 5.928,2.855 7.245,4.347 l -1.317,10.934 -30.823,0 -1.319,-10.934 c 1.141,-1.491 3.557,-2.94 7.246,-4.347 l 0,-60.196 c -3.603,-1.317 -6.016,-2.81 -7.246,-4.48 l 1.318,-10.931 30.823,0 1.317,10.931 c -1.406,1.671 -3.82,3.163 -7.245,4.48 l 0,20.68 28.98,0 0,-20.68 c -3.603,-1.317 -6.017,-2.81 -7.245,-4.48 l 1.316,-10.931 30.824,0 1.317,10.931 c -1.406,1.671 -3.82,3.163 -7.245,4.48 l 0,60.196 c 3.511,1.406 5.928,2.855 7.245,4.347 l -1.317,10.934 -30.824,0 -1.316,-10.934 c 1.139,-1.491 3.557,-2.94 7.245,-4.347 l 0,-26.345 z"
         id="path5753"
         style="fill:#00ff00;stroke-width:0.37466938;stroke-miterlimit:4;stroke-dasharray:none"
         inkscape:connector-curvature="0" />
      <path
         d="m 204.108,342.886 c -10.537,0 -18.462,-2.809 -23.775,-8.43 -5.314,-5.617 -7.969,-13.786 -7.969,-24.5 0,-6.497 0.921,-12.095 2.765,-16.794 1.845,-4.697 4.347,-8.319 7.509,-10.869 6.146,-4.915 13.304,-7.376 21.47,-7.376 8.167,0 14.424,2.088 18.771,6.257 4.347,4.174 6.521,11.658 6.521,22.46 0,6.322 -3.119,9.484 -9.353,9.484 l -28.584,0 c 0.351,5.533 1.779,9.44 4.282,11.724 2.502,2.283 6.475,3.424 11.92,3.424 2.986,0 5.838,-0.351 8.563,-1.054 2.721,-0.701 4.695,-1.404 5.927,-2.107 l 1.844,-1.054 3.952,10.536 c -0.526,0.616 -1.297,1.385 -2.306,2.308 -1.01,0.921 -3.555,2.15 -7.639,3.688 -4.084,1.534 -8.717,2.303 -13.898,2.303 z m 8.298,-41.491 c 0.177,-1.229 0.264,-2.72 0.264,-4.479 0,-1.755 -0.704,-3.62 -2.107,-5.598 -1.406,-1.976 -3.842,-2.964 -7.31,-2.964 -3.471,0 -6.126,1.054 -7.969,3.161 -1.845,2.107 -3.075,5.664 -3.689,10.672 l 20.811,-0.792 z"
         id="path5755"
         style="fill:#00ff00;stroke-width:0.37466938;stroke-miterlimit:4;stroke-dasharray:none"
         inkscape:connector-curvature="0" />
      <path
         d="m 270.364,248.31 c 5.006,-1.14 9.792,-1.712 14.359,-1.712 4.562,0 8.473,0.133 11.722,0.394 l 0,79.036 c 2.635,0.439 5.049,1.185 7.243,2.238 l 0,10.406 c -5.268,2.812 -11.942,4.214 -20.02,4.214 -0.879,-0.44 -1.735,-1.228 -2.569,-2.371 -0.836,-1.14 -1.297,-2.238 -1.384,-3.292 -1.931,1.581 -4.436,2.92 -7.508,4.019 -3.075,1.097 -6.104,1.645 -9.089,1.645 -9.484,0 -16.356,-2.568 -20.615,-7.706 -4.261,-5.135 -6.389,-13.543 -6.389,-25.224 0,-13.259 3.248,-22.566 9.749,-27.924 5.707,-4.744 12.731,-7.115 21.076,-7.115 3.688,0 7.376,0.441 11.065,1.318 l 0,-13.042 c -4.042,-1.139 -7.026,-2.72 -8.959,-4.741 l 1.319,-10.143 z m -4.479,81.142 c 5.006,0 9.044,-1.492 12.119,-4.479 l 0,-35.3 c -3.602,-0.879 -7.422,-1.318 -11.46,-1.318 -4.04,0 -6.961,1.778 -8.76,5.334 -1.801,3.557 -2.701,8.873 -2.701,15.938 0,7.07 0.877,12.143 2.635,15.216 1.757,3.073 4.478,4.609 8.167,4.609 z"
         id="path5757"
         style="fill:#00ff00;stroke-width:0.37466938;stroke-miterlimit:4;stroke-dasharray:none"
         inkscape:connector-curvature="0" />
      <path
         d="m 339.518,355.794 c 7.814,0 11.723,-4.696 11.723,-14.093 l 0,-5.797 c -4.305,2.636 -9.705,3.954 -16.202,3.954 -8.255,0 -14.602,-2.415 -19.034,-7.246 -4.436,-4.829 -6.652,-12.863 -6.652,-24.106 0,-22.391 10.274,-33.589 30.823,-33.589 5.27,0 10.186,1.143 14.753,3.426 0.876,-1.579 2.194,-2.372 3.951,-2.372 l 10.803,0 0,64.809 c 0,9.658 -2.395,16.816 -7.181,21.471 -4.786,4.654 -12.186,6.981 -22.195,6.981 -5.269,0 -10.716,-0.616 -16.334,-1.845 -5.621,-1.229 -9.878,-2.764 -12.777,-4.61 -0.088,-0.789 -0.131,-1.58 -0.131,-2.37 0,-4.831 1.141,-9.484 3.425,-13.963 l 11.591,0 c 0.966,1.845 1.667,4.301 2.107,7.376 3.337,1.317 7.115,1.974 11.33,1.974 z m -9.288,-34.246 c 1.799,2.634 4.875,3.951 9.221,3.951 4.348,0 8.276,-1.228 11.79,-3.688 l 0,-31.219 c -3.514,-1.492 -7.333,-2.239 -11.46,-2.239 -8.167,0 -12.25,6.456 -12.25,19.363 -0.001,6.587 0.898,11.199 2.699,13.832 z"
         id="path5759"
         style="fill:#00ff00;stroke-width:0.37466938;stroke-miterlimit:4;stroke-dasharray:none"
         inkscape:connector-curvature="0" />
      <path
         d="m 411.304,342.886 c -10.538,0 -18.463,-2.809 -23.775,-8.43 -5.314,-5.617 -7.969,-13.786 -7.969,-24.5 0,-6.497 0.921,-12.095 2.766,-16.794 1.845,-4.697 4.347,-8.319 7.51,-10.869 6.146,-4.915 13.304,-7.376 21.469,-7.376 8.168,0 14.425,2.088 18.771,6.257 4.347,4.174 6.522,11.658 6.522,22.46 0,6.322 -3.119,9.484 -9.354,9.484 l -28.583,0 c 0.35,5.533 1.779,9.44 4.282,11.724 2.501,2.283 6.474,3.424 11.919,3.424 2.985,0 5.84,-0.351 8.562,-1.054 2.721,-0.701 4.698,-1.404 5.928,-2.107 l 1.846,-1.054 3.949,10.536 c -0.524,0.616 -1.295,1.385 -2.303,2.308 -1.012,0.921 -3.557,2.15 -7.642,3.688 -4.084,1.534 -8.719,2.303 -13.898,2.303 z m 8.3,-41.491 c 0.177,-1.229 0.263,-2.72 0.263,-4.479 0,-1.755 -0.703,-3.62 -2.108,-5.598 -1.403,-1.976 -3.842,-2.964 -7.31,-2.964 -3.471,0 -6.126,1.054 -7.97,3.161 -1.845,2.107 -3.074,5.664 -3.688,10.672 l 20.813,-0.792 z"
         id="path5761"
         style="fill:#00ff00;stroke-width:0.37466938;stroke-miterlimit:4;stroke-dasharray:none"
         inkscape:connector-curvature="0" />
      <path
         d="m 443.048,248.31 c 4.918,-1.14 9.484,-1.712 13.699,-1.712 4.217,0 7.772,0.133 10.669,0.394 l 0,32.932 c 2.107,-1.401 4.917,-2.588 8.432,-3.557 3.512,-0.965 6.629,-1.449 9.352,-1.449 8.694,0 14.708,2.108 18.047,6.323 3.335,4.217 5.006,10.626 5.006,19.232 l 0,26.739 c 3.423,1.316 5.839,2.812 7.243,4.479 l -1.315,10.143 -30.297,0 -1.319,-10.143 c 1.23,-1.667 3.645,-3.162 7.246,-4.479 l 0,-26.081 c 0,-4.742 -0.77,-7.923 -2.305,-9.55 -1.541,-1.626 -4.325,-2.437 -8.365,-2.437 -4.04,0 -7.948,1.404 -11.724,4.215 l 0,33.853 c 3.427,1.316 5.842,2.812 7.245,4.479 l -1.317,10.143 -30.296,0 -1.316,-10.143 c 1.229,-1.667 3.644,-3.162 7.244,-4.479 l 0,-64.281 c -3.074,-1.055 -5.489,-2.545 -7.244,-4.479 l 1.315,-10.142 z"
         id="path5763"
         style="fill:#00ff00;stroke-width:0.37466938;stroke-miterlimit:4;stroke-dasharray:none"
         inkscape:connector-curvature="0" />
      <path
         d="m 550.6,342.886 c -10.408,0 -18.112,-2.765 -23.118,-8.299 -5.005,-5.531 -7.507,-13.895 -7.507,-25.092 0,-11.195 2.785,-19.758 8.362,-25.685 5.577,-5.929 13.588,-8.894 24.039,-8.894 10.449,0 18.199,2.636 23.249,7.905 5.049,5.269 7.575,13.501 7.575,24.698 0,11.196 -2.833,19.889 -8.496,26.081 -5.664,6.192 -13.698,9.286 -24.104,9.286 z m -11.659,-34.511 c 0,14.05 4.215,21.076 12.646,21.076 4.302,0 7.485,-1.602 9.549,-4.807 2.064,-3.206 3.096,-8.452 3.096,-15.742 0,-13.698 -4.304,-20.549 -12.908,-20.549 -4.215,0 -7.335,1.516 -9.353,4.545 -2.02,3.03 -3.03,8.189 -3.03,15.477 z"
         id="path5765"
         style="fill:#00ff00;stroke-width:0.37466938;stroke-miterlimit:4;stroke-dasharray:none"
         inkscape:connector-curvature="0" />
      <path
         d="m 620.215,355.794 c 7.814,0 11.722,-4.696 11.722,-14.093 l 0,-5.797 c -4.305,2.636 -9.703,3.954 -16.201,3.954 -8.255,0 -14.601,-2.415 -19.033,-7.246 -4.436,-4.829 -6.652,-12.863 -6.652,-24.106 0,-22.391 10.274,-33.589 30.823,-33.589 5.27,0 10.185,1.143 14.753,3.426 0.876,-1.579 2.192,-2.372 3.952,-2.372 l 10.802,0 0,64.809 c 0,9.658 -2.396,16.816 -7.18,21.471 -4.789,4.654 -12.185,6.981 -22.194,6.981 -5.271,0 -10.718,-0.616 -16.335,-1.845 -5.622,-1.229 -9.877,-2.764 -12.777,-4.61 -0.088,-0.789 -0.133,-1.58 -0.133,-2.37 0,-4.831 1.143,-9.484 3.426,-13.963 l 11.592,0 c 0.966,1.845 1.667,4.301 2.108,7.376 3.334,1.317 7.112,1.974 11.327,1.974 z m -9.288,-34.246 c 1.801,2.634 4.874,3.951 9.223,3.951 4.346,0 8.276,-1.228 11.787,-3.688 l 0,-31.219 c -3.511,-1.492 -7.331,-2.239 -11.458,-2.239 -8.168,0 -12.251,6.456 -12.251,19.363 0,6.587 0.898,11.199 2.699,13.832 z"
         id="path5767"
         style="fill:#00ff00;stroke-width:0.37466938;stroke-miterlimit:4;stroke-dasharray:none"
         inkscape:connector-curvature="0" />
    </g>
    <text
       xml:space="preserve"
       style="font-style:normal;font-variant:normal;font-weight:bold;font-stretch:normal;font-size:12.50000095px;line-height:100%;font-family:Arial;-inkscape-font-specification:'Arial Bold';text-align:center;letter-spacing:0px;word-spacing:0px;text-anchor:middle;fill:#00ff00;fill-opacity:1;stroke:none;stroke-width:0.1;stroke-linecap:butt;stroke-linejoin:miter;stroke-miterlimit:4;stroke-dasharray:none;stroke-opacity:1"
       x="-728.80182"
       y="31.729521"
       id="text5509-1"
       sodipodi:linespacing="100%"
       transform="matrix(0,-1,1,0,0,0)"
       inkscape:transform-center-x="-0.093435404"
       inkscape:transform-center-y="-0.093435399"><tspan
         sodipodi:role="line"
         id="tspan5511-2"
         x="-728.80182"
         y="31.729521">LED</tspan><tspan
         sodipodi:role="line"
         x="-728.80182"
         y="44.229523"
         id="tspan6410">1234</tspan></text>
    <text
       xml:space="preserve"
       style="font-style:normal;font-variant:normal;font-weight:bold;font-stretch:normal;font-size:12.50000095px;line-height:100%;font-family:Arial;-inkscape-font-specification:'Arial Bold';text-align:center;letter-spacing:0px;word-spacing:0px;text-anchor:middle;fill:#00ff00;fill-opacity:1;stroke:none;stroke-width:0.1;stroke-linecap:butt;stroke-linejoin:miter;stroke-miterlimit:4;stroke-dasharray:none;stroke-opacity:1"
       x="54.455063"
       y="706.72809"
       id="text5509-1-5"
       sodipodi:linespacing="100%"
       inkscape:transform-center-x="-0.093433593"
       inkscape:transform-center-y="0.093434321"><tspan
         sodipodi:role="line"
         x="54.455063"
         y="706.72809"
         id="tspan6410-8">Motor</tspan></text>
    <text
       xml:space="preserve"
       style="font-style:normal;font-variant:normal;font-weight:bold;font-stretch:normal;font-size:12.50000095px;line-height:100%;font-family:Arial;-inkscape-font-specification:'Arial Bold';text-align:center;letter-spacing:0px;word-spacing:0px;text-anchor:middle;fill:#00ff00;fill-opacity:1;stroke:none;stroke-width:0.1;stroke-linecap:butt;stroke-linejoin:miter;stroke-miterlimit:4;stroke-dasharray:none;stroke-opacity:1"
       x="96.416367"
       y="707.4809"
       id="text5509-1-5-4"
       sodipodi:linespacing="100%"
       inkscape:transform-center-x="-0.093433593"
       inkscape:transform-center-y="0.093434321"><tspan
         sodipodi:role="line"
         x="96.416367"
         y="707.4809"
         id="tspan6410-8-8">Servo</tspan></text>
    <text
       xml:space="preserve"
       style="font-style:normal;font-variant:normal;font-weight:bold;font-stretch:normal;font-size:12.50000095px;line-height:100%;font-family:Arial;-inkscape-font-specification:'Arial Bold';text-align:center;letter-spacing:0px;word-spacing:0px;text-anchor:middle;fill:#00ff00;fill-opacity:1;stroke:none;stroke-width:0.1;stroke-linecap:butt;stroke-linejoin:miter;stroke-miterlimit:4;stroke-dasharray:none;stroke-opacity:1"
       x="151.25301"
       y="734.55084"
       id="text5509-1-5-4-8"
       sodipodi:linespacing="100%"
       inkscape:transform-center-x="-0.093433593"
       inkscape:transform-center-y="0.093434321"><tspan
         sodipodi:role="line"
         x="151.25301"
         y="734.55084"
         id="tspan6410-8-8-3">SPI</tspan></text>
    <text
       xml:space="preserve"
       style="font-style:normal;font-variant:normal;font-weight:bold;font-stretch:normal;font-size:12.50000095px;line-height:100%;font-family:Arial;-inkscape-font-specification:'Arial Bold';text-align:center;letter-spacing:0px;word-spacing:0px;text-anchor:middle;fill:#00ff00;fill-opacity:1;stroke:none;stroke-width:0.1;stroke-linecap:butt;stroke-linejoin:miter;stroke-miterlimit:4;stroke-dasharray:none;stroke-opacity:1"
       x="-665.11786"
       y="225.64223"
       id="text5509-1-5-4-87"
       sodipodi:linespacing="100%"
       inkscape:transform-center-x="-0.093431955"
       inkscape:transform-center-y="-0.09343042"
       transform="matrix(0,-1,1,0,0,0)"><tspan
         sodipodi:role="line"
         x="-665.11786"
         y="225.64223"
         id="tspan6410-8-8-5">I²C</tspan></text>
    <text
       xml:space="preserve"
       style="font-style:normal;font-variant:normal;font-weight:bold;font-stretch:normal;font-size:12.50000095px;line-height:100%;font-family:Arial;-inkscape-font-specification:'Arial Bold';text-align:center;letter-spacing:0px;word-spacing:0px;text-anchor:middle;fill:#00ff00;fill-opacity:1;stroke:none;stroke-width:0.1;stroke-linecap:butt;stroke-linejoin:miter;stroke-miterlimit:4;stroke-dasharray:none;stroke-opacity:1"
       x="-696.95575"
       y="225.95436"
       id="text5509-1-5-4-2"
       sodipodi:linespacing="100%"
       inkscape:transform-center-x="-0.093431955"
       inkscape:transform-center-y="-0.09343042"
       transform="matrix(0,-1,1,0,0,0)"><tspan
         sodipodi:role="line"
         x="-696.95575"
         y="225.95436"
         id="tspan6410-8-8-4">UART</tspan></text>
    <text
       xml:space="preserve"
       style="font-style:normal;font-variant:normal;font-weight:bold;font-stretch:normal;font-size:12.50000095px;line-height:100%;font-family:Arial;-inkscape-font-specification:'Arial Bold';text-align:center;letter-spacing:0px;word-spacing:0px;text-anchor:middle;fill:#00ff00;fill-opacity:1;stroke:none;stroke-width:0.1;stroke-linecap:butt;stroke-linejoin:miter;stroke-miterlimit:4;stroke-dasharray:none;stroke-opacity:1"
       x="114.83241"
       y="608.68982"
       id="text5509-1-5-5"
       sodipodi:linespacing="100%"
       inkscape:transform-center-x="-0.093433593"
       inkscape:transform-center-y="0.093434321"><tspan
         sodipodi:role="line"
         x="114.83241"
         y="608.68982"
         id="tspan6410-8-0">Input/Output</tspan></text>
    <text
       xml:space="preserve"
       style="font-style:normal;font-variant:normal;font-weight:bold;font-stretch:normal;font-size:10px;line-height:69.99999881%;font-family:Arial;-inkscape-font-specification:'Arial Bold';text-align:center;letter-spacing:0px;word-spacing:0px;text-anchor:middle;fill:#00ff00;fill-opacity:1;stroke:none;stroke-width:0.1;stroke-linecap:butt;stroke-linejoin:miter;stroke-miterlimit:4;stroke-dasharray:none;stroke-opacity:1"
       x="158.19737"
       y="597.65344"
       id="text5509-1-5-4-87-5-9"
       sodipodi:linespacing="69.999999%"
       inkscape:transform-center-x="-0.093431607"
       inkscape:transform-center-y="0.093431558"><tspan
         sodipodi:role="line"
         x="158.19737"
         y="597.65344"
         id="tspan6541">-</tspan><tspan
         sodipodi:role="line"
         x="158.19737"
         y="604.65344"
         id="tspan6545">+</tspan><tspan
         sodipodi:role="line"
         x="158.19737"
         y="611.65344"
         id="tspan6547">S</tspan></text>
    <text
       xml:space="preserve"
       style="font-style:normal;font-variant:normal;font-weight:bold;font-stretch:normal;font-size:10px;line-height:69.99999881%;font-family:Arial;-inkscape-font-specification:'Arial Bold';text-align:center;letter-spacing:0px;word-spacing:0px;text-anchor:middle;fill:#00ff00;fill-opacity:1;stroke:none;stroke-width:0.1;stroke-linecap:butt;stroke-linejoin:miter;stroke-miterlimit:4;stroke-dasharray:none;stroke-opacity:1"
       x="118.66077"
       y="700.43542"
       id="text5509-1-5-4-87-5-9-1"
       sodipodi:linespacing="69.999999%"
       inkscape:transform-center-x="-0.093431607"
       inkscape:transform-center-y="0.093431558"><tspan
         sodipodi:role="line"
         x="118.66077"
         y="700.43542"
         id="tspan6541-0">-</tspan><tspan
         sodipodi:role="line"
         x="118.66077"
         y="707.43542"
         id="tspan6545-7">+</tspan><tspan
         sodipodi:role="line"
         x="118.66077"
         y="714.43542"
         id="tspan6547-6">S</tspan></text>
    <text
       xml:space="preserve"
       style="font-style:normal;font-variant:normal;font-weight:bold;font-stretch:normal;font-size:10px;line-height:69.99999881%;font-family:Arial;-inkscape-font-specification:'Arial Bold';text-align:center;letter-spacing:0px;word-spacing:0px;text-anchor:middle;fill:#00ff00;fill-opacity:1;stroke:none;stroke-width:0.1;stroke-linecap:butt;stroke-linejoin:miter;stroke-miterlimit:4;stroke-dasharray:none;stroke-opacity:1"
       x="143.11436"
       y="778.7135"
       id="text5509-1-5-4-87-5-9-1-0"
       sodipodi:linespacing="69.999999%"
       inkscape:transform-center-x="-0.093431607"
       inkscape:transform-center-y="0.093431558"><tspan
         sodipodi:role="line"
         x="143.11436"
         y="778.7135"
         id="tspan6547-6-2">UB</tspan></text>
    <text
       xml:space="preserve"
       style="font-style:normal;font-variant:normal;font-weight:bold;font-stretch:normal;font-size:12.50000095px;line-height:69.99999881%;font-family:Arial;-inkscape-font-specification:'Arial Bold';text-align:center;letter-spacing:0px;word-spacing:0px;text-anchor:middle;fill:#00ff00;fill-opacity:1;stroke:none;stroke-width:0.1;stroke-linecap:butt;stroke-linejoin:miter;stroke-miterlimit:4;stroke-dasharray:none;stroke-opacity:1"
       x="185.15944"
       y="793.10571"
       id="text5509-1-5-4-87-5-9-1-0-5"
       sodipodi:linespacing="69.999999%"
       inkscape:transform-center-x="-0.093431607"
       inkscape:transform-center-y="0.093431558"><tspan
         sodipodi:role="line"
         x="185.15944"
         y="793.10571"
         id="tspan6547-6-2-1">Pow</tspan></text>
    <text
       xml:space="preserve"
       style="font-style:normal;font-variant:normal;font-weight:bold;font-stretch:normal;font-size:12.50000095px;line-height:100%;font-family:Arial;-inkscape-font-specification:'Arial Bold';text-align:center;letter-spacing:0px;word-spacing:0px;text-anchor:middle;fill:#00ff00;fill-opacity:1;stroke:none;stroke-width:0.1;stroke-linecap:butt;stroke-linejoin:miter;stroke-miterlimit:4;stroke-dasharray:none;stroke-opacity:1"
       x="173.49608"
       y="856.39099"
       id="text5509-1-5-4-8-9"
       sodipodi:linespacing="100%"
       inkscape:transform-center-x="-0.093433593"
       inkscape:transform-center-y="0.093434321"><tspan
         sodipodi:role="line"
         x="173.49608"
         y="856.39099"
         id="tspan6410-8-8-3-7">6-24V</tspan></text>
    <g
       id="View007"
       transform="matrix(0,-3.5433071,3.5433071,0,0.85092461,859.41574)"
       style="stroke-width:0.02822222;stroke-miterlimit:4;stroke-dasharray:none">
      <g
         transform="scale(1,-1)"
         id="g22"
         style="fill:none;stroke:#000000;stroke-width:0.02822222;stroke-linecap:butt;stroke-linejoin:miter;stroke-miterlimit:4;stroke-dasharray:none">
        <path
           inkscape:connector-curvature="0"
           id="1"
           d="m 63,-62 15,0"
           style="stroke-width:0.02822222;stroke-miterlimit:4;stroke-dasharray:none" />
        <path
           inkscape:connector-curvature="0"
           id="2"
           d="m 78,-62 0,-3"
           style="stroke-width:0.02822222;stroke-miterlimit:4;stroke-dasharray:none" />
        <path
           inkscape:connector-curvature="0"
           id="3"
           d="m 78,-65 15,0"
           style="stroke-width:0.02822222;stroke-miterlimit:4;stroke-dasharray:none" />
        <path
           inkscape:connector-curvature="0"
           id="4"
           d="M 93,-65 93,0"
           style="stroke-width:0.02822222;stroke-miterlimit:4;stroke-dasharray:none" />
        <path
           inkscape:connector-curvature="0"
           id="5"
           d="M 93,0 78,0"
           style="stroke-width:0.02822222;stroke-miterlimit:4;stroke-dasharray:none" />
        <path
           inkscape:connector-curvature="0"
           id="6"
           d="m 78,0 0,-3"
           style="stroke-width:0.02822222;stroke-miterlimit:4;stroke-dasharray:none" />
        <path
           inkscape:connector-curvature="0"
           id="7"
           d="M 78,-3 63,-3"
           style="stroke-width:0.02822222;stroke-miterlimit:4;stroke-dasharray:none" />
        <path
           inkscape:connector-curvature="0"
           id="8"
           d="m 63,-3 0,3"
           style="stroke-width:0.02822222;stroke-miterlimit:4;stroke-dasharray:none" />
        <path
           inkscape:connector-curvature="0"
           id="9"
           d="M 63,0 30,0"
           style="stroke-width:0.02822222;stroke-miterlimit:4;stroke-dasharray:none" />
        <path
           inkscape:connector-curvature="0"
           id="10"
           d="m 30,0 0,-3"
           style="stroke-width:0.02822222;stroke-miterlimit:4;stroke-dasharray:none" />
        <path
           inkscape:connector-curvature="0"
           id="11"
           d="M 30,-3 15,-3"
           style="stroke-width:0.02822222;stroke-miterlimit:4;stroke-dasharray:none" />
        <path
           inkscape:connector-curvature="0"
           id="12"
           d="m 15,-3 0,3"
           style="stroke-width:0.02822222;stroke-miterlimit:4;stroke-dasharray:none" />
        <path
           inkscape:connector-curvature="0"
           id="13"
           d="M 15,0 0,0"
           style="stroke-width:0.02822222;stroke-miterlimit:4;stroke-dasharray:none" />
        <path
           inkscape:connector-curvature="0"
           id="14"
           d="M 0,0 0,-22.5"
           style="stroke-width:0.02822222;stroke-miterlimit:4;stroke-dasharray:none" />
        <path
           inkscape:connector-curvature="0"
           id="15"
           d="m 0,-22.5 3,0"
           style="stroke-width:0.02822222;stroke-miterlimit:4;stroke-dasharray:none" />
        <path
           inkscape:connector-curvature="0"
           id="16"
           d="m 3,-22.5 0,-20"
           style="stroke-width:0.02822222;stroke-miterlimit:4;stroke-dasharray:none" />
        <path
           inkscape:connector-curvature="0"
           id="17"
           d="m 3,-42.5 -3,0"
           style="stroke-width:0.02822222;stroke-miterlimit:4;stroke-dasharray:none" />
        <path
           inkscape:connector-curvature="0"
           id="18"
           d="M 0,-42.5 0,-65"
           style="stroke-width:0.02822222;stroke-miterlimit:4;stroke-dasharray:none" />
        <path
           inkscape:connector-curvature="0"
           id="19"
           d="m 0,-65 15,0"
           style="stroke-width:0.02822222;stroke-miterlimit:4;stroke-dasharray:none" />
        <path
           inkscape:connector-curvature="0"
           id="20"
           d="m 15,-65 0,3"
           style="stroke-width:0.02822222;stroke-miterlimit:4;stroke-dasharray:none" />
        <path
           inkscape:connector-curvature="0"
           id="21"
           d="m 15,-62 15,0"
           style="stroke-width:0.02822222;stroke-miterlimit:4;stroke-dasharray:none" />
        <path
           inkscape:connector-curvature="0"
           id="22"
           d="m 30,-62 0,-3"
           style="stroke-width:0.02822222;stroke-miterlimit:4;stroke-dasharray:none" />
        <path
           inkscape:connector-curvature="0"
           id="23"
           d="m 30,-65 33,0"
           style="stroke-width:0.02822222;stroke-miterlimit:4;stroke-dasharray:none" />
        <path
           inkscape:connector-curvature="0"
           id="24"
           d="m 63,-62 0,-3"
           style="stroke-width:0.02822222;stroke-miterlimit:4;stroke-dasharray:none" />
        <path
           inkscape:connector-curvature="0"
           id="25"
           d="m 56.6,-9.4 -10.3,0"
           style="stroke-width:0.02822222;stroke-miterlimit:4;stroke-dasharray:none" />
        <path
           inkscape:connector-curvature="0"
           id="26"
           d="m 56.6,-10.6 0,1.2"
           style="stroke-width:0.02822222;stroke-miterlimit:4;stroke-dasharray:none" />
        <path
           inkscape:connector-curvature="0"
           id="27"
           d="m 69,-10.6 -12.4,0"
           style="stroke-width:0.02822222;stroke-miterlimit:4;stroke-dasharray:none" />
        <path
           inkscape:connector-curvature="0"
           id="28"
           d="m 69,-53.4 0,42.8"
           style="stroke-width:0.02822222;stroke-miterlimit:4;stroke-dasharray:none" />
        <path
           inkscape:connector-curvature="0"
           id="29-3"
           d="m 58.3,-53.4 10.7,0"
           style="stroke-width:0.02822222;stroke-miterlimit:4;stroke-dasharray:none" />
        <path
           inkscape:connector-curvature="0"
           id="30-6"
           d="m 58.3,-60 0,6.6"
           style="stroke-width:0.02822222;stroke-miterlimit:4;stroke-dasharray:none" />
        <path
           inkscape:connector-curvature="0"
           id="31-7"
           d="m 40.7,-60 17.6,0"
           style="stroke-width:0.02822222;stroke-miterlimit:4;stroke-dasharray:none" />
        <path
           inkscape:connector-curvature="0"
           id="32-5"
           d="m 40.7,-48.7 0,-11.3"
           style="stroke-width:0.02822222;stroke-miterlimit:4;stroke-dasharray:none" />
        <path
           inkscape:connector-curvature="0"
           id="33-3"
           d="m 38.7,-48.7 2,0"
           style="stroke-width:0.02822222;stroke-miterlimit:4;stroke-dasharray:none" />
        <path
           inkscape:connector-curvature="0"
           id="34-5"
           d="m 38.7,-36.1 0,-12.6"
           style="stroke-width:0.02822222;stroke-miterlimit:4;stroke-dasharray:none" />
        <path
           inkscape:connector-curvature="0"
           id="35-6"
           d="m 46.3,-36.1 -7.6,0"
           style="stroke-width:0.02822222;stroke-miterlimit:4;stroke-dasharray:none" />
        <path
           inkscape:connector-curvature="0"
           id="36-2"
           d="m 46.3,-9.4 0,-26.7"
           style="stroke-width:0.02822222;stroke-miterlimit:4;stroke-dasharray:none" />
        <circle
           cx="14.8"
           cy="-53.549999"
           r="3"
           id="circle60"
           style="stroke-width:0.02822222;stroke-miterlimit:4;stroke-dasharray:none" />
        <path
           inkscape:connector-curvature="0"
           id="38-9"
           d="m 32.8,-13 8,0"
           style="stroke-width:0.02822222;stroke-miterlimit:4;stroke-dasharray:none" />
        <path
           inkscape:connector-curvature="0"
           id="39-1"
           d="m 40.8,-13 0,-3"
           style="stroke-width:0.02822222;stroke-miterlimit:4;stroke-dasharray:none" />
        <path
           inkscape:connector-curvature="0"
           id="40-2"
           d="m 40.8,-16 -8,0"
           style="stroke-width:0.02822222;stroke-miterlimit:4;stroke-dasharray:none" />
        <path
           inkscape:connector-curvature="0"
           id="41"
           d="m 32.8,-16 0,3"
           style="stroke-width:0.02822222;stroke-miterlimit:4;stroke-dasharray:none" />
        <path
           inkscape:connector-curvature="0"
           id="42-7"
           d="m 18.4,-37 3.6,0"
           style="stroke-width:0.02822222;stroke-miterlimit:4;stroke-dasharray:none" />
        <path
           inkscape:connector-curvature="0"
           id="43-0"
           d="m 22,-37 0,-6.1"
           style="stroke-width:0.02822222;stroke-miterlimit:4;stroke-dasharray:none" />
        <path
           inkscape:connector-curvature="0"
           id="44-9"
           d="m 22,-43.1 -3.6,0"
           style="stroke-width:0.02822222;stroke-miterlimit:4;stroke-dasharray:none" />
        <path
           inkscape:connector-curvature="0"
           id="45-3"
           d="m 18.4,-43.1 0,6.1"
           style="stroke-width:0.02822222;stroke-miterlimit:4;stroke-dasharray:none" />
        <circle
           cx="65.5"
           cy="-56.5"
           r="1.6"
           id="circle70"
           style="stroke-width:0.02822222;stroke-miterlimit:4;stroke-dasharray:none" />
        <circle
           cx="65.5"
           cy="-7.5"
           r="1.6"
           id="circle72"
           style="stroke-width:0.02822222;stroke-miterlimit:4;stroke-dasharray:none" />
        <circle
           cx="7.5"
           cy="-56.5"
           r="1.6"
           id="circle74"
           style="stroke-width:0.02822222;stroke-miterlimit:4;stroke-dasharray:none" />
        <circle
           cx="7.5"
           cy="-7.5"
           r="1.6"
           id="circle76"
           style="stroke-width:0.02822222;stroke-miterlimit:4;stroke-dasharray:none" />
        <circle
           cx="39.5"
           cy="-28.200001"
           r="1.5"
           id="circle78"
           style="stroke-width:0.02822222;stroke-miterlimit:4;stroke-dasharray:none" />
        <circle
           cx="20.799999"
           cy="-57.5"
           r="1.2"
           id="circle80"
           style="stroke-width:0.02822222;stroke-miterlimit:4;stroke-dasharray:none" />
      </g>
    </g>
  </g>
</svg>
