  0
SECTION
  2
HEADER
  9
$ACADVER
  1
AC1009
  9
$INSBASE
 10
0.0
 20
0.0
 30
0.0
  9
$EXTMIN
 10
0.0
 20
0.0
 30
0.0
  9
$EXTMAX
 10
0.0
 20
0.0
 30
0.0
  0
ENDSEC
  0
SECTION
  2
TABLES
  0
TABLE
  2
VPORT
 70
0
  0
ENDTAB
  0
TABLE
  2
LTYPE
 70
1
  0
LTYPE
  2
CONTINUOUS
 70
0
  3
Solid line
 72
65
 73
0
 40
0.0
  0
ENDTAB
  0
TABLE
  2
LAYER
 70
1
  0
LAYER
  2
0
 70
64
 62
7
  6
continuous
  0
ENDTAB
  0
TABLE
  2
STYLE
 70
1
  0
STYLE
  2
STANDARD
 70
0
 40
0
 41
1.0
 50
0.0
 71
0
 42
1
 3
ARIAL.TTF
 4

  0
ENDTAB
  0
TABLE
  2
VIEW
 70
0
  0
ENDTAB
  0
ENDSEC
  0
SECTION
  2
BLOCKS
  0
BLOCK
  8
0
  2
SKETCH
 70
0
 10
0.0
 20
0.0
 30
0.0
  3
SKETCH
  0
CIRCLE
  8
0
 62
7
 10
7.5
 20
-7.5
 30
30.5
 40
1.6
  0
CIRCLE
  8
0
 62
7
 10
7.5
 20
-56.5
 30
30.5
 40
1.6
  0
CIRCLE
  8
0
 62
7
 10
65.5
 20
-7.5
 30
30.5
 40
1.6
  0
CIRCLE
  8
0
 62
7
 10
65.5
 20
-56.5
 30
30.5
 40
1.6
  0
CIRCLE
  8
0
 62
7
 10
14.8
 20
-53.55
 30
30.5
 40
3.0
  0
POLYLINE
  8
0
 62
7
 70
1
 66
1
 10
0.0
 20
0.0
 30
0.0
  0
VERTEX
  8
0
 10
18.4
 20
-37.0
 30
30.5
  0
VERTEX
  8
0
 10
22.0
 20
-37.0
 30
30.5
  0
VERTEX
  8
0
 10
22.0
 20
-43.1
 30
30.5
  0
VERTEX
  8
0
 10
18.4
 20
-43.1
 30
30.5
  0
SEQEND
  8
0
  0
POLYLINE
  8
0
 62
7
 70
1
 66
1
 10
0.0
 20
0.0
 30
0.0
  0
VERTEX
  8
0
 10
32.8
 20
-13.0
 30
30.5
  0
VERTEX
  8
0
 10
40.8
 20
-13.0
 30
30.5
  0
VERTEX
  8
0
 10
40.8
 20
-16.0
 30
30.5
  0
VERTEX
  8
0
 10
32.8
 20
-16.0
 30
30.5
  0
SEQEND
  8
0
  0
CIRCLE
  8
0
 62
7
 10
39.5
 20
-28.2
 30
30.5
 40
1.5
  0
POLYLINE
  8
0
 62
7
 70
1
 66
1
 10
0.0
 20
0.0
 30
0.0
  0
VERTEX
  8
0
 10
46.3
 20
-9.4
 30
30.5
  0
VERTEX
  8
0
 10
46.3
 20
-36.1
 30
30.5
  0
VERTEX
  8
0
 10
38.7
 20
-36.1
 30
30.5
  0
VERTEX
  8
0
 10
38.7
 20
-48.7
 30
30.5
  0
VERTEX
  8
0
 10
40.7
 20
-48.7
 30
30.5
  0
VERTEX
  8
0
 10
40.7
 20
-60.0
 30
30.5
  0
VERTEX
  8
0
 10
58.3
 20
-60.0
 30
30.5
  0
VERTEX
  8
0
 10
58.3
 20
-53.4
 30
30.5
  0
VERTEX
  8
0
 10
69.0
 20
-53.4
 30
30.5
  0
VERTEX
  8
0
 10
69.0
 20
-10.6
 30
30.5
  0
VERTEX
  8
0
 10
56.6
 20
-10.6
 30
30.5
  0
VERTEX
  8
0
 10
56.6
 20
-9.4
 30
30.5
  0
SEQEND
  8
0
  0
POLYLINE
  8
0
 62
7
 70
1
 66
1
 10
0.0
 20
0.0
 30
0.0
  0
VERTEX
  8
0
 10
63.0
 20
-62.0
 30
30.5
  0
VERTEX
  8
0
 10
78.0
 20
-62.0
 30
30.5
  0
VERTEX
  8
0
 10
78.0
 20
-65.0
 30
30.5
  0
VERTEX
  8
0
 10
93.0
 20
-65.0
 30
30.5
  0
VERTEX
  8
0
 10
93.0
 20
6.27590901652e-32
 30
30.5
  0
VERTEX
  8
0
 10
78.0
 20
6.27590901652e-32
 30
30.5
  0
VERTEX
  8
0
 10
78.0
 20
-3.0
 30
30.5
  0
VERTEX
  8
0
 10
63.0
 20
-3.0
 30
30.5
  0
VERTEX
  8
0
 10
63.0
 20
0.0
 30
30.5
  0
VERTEX
  8
0
 10
30.0
 20
2.35346588119e-32
 30
30.5
  0
VERTEX
  8
0
 10
30.0
 20
-3.0
 30
30.5
  0
VERTEX
  8
0
 10
15.0
 20
-3.0
 30
30.5
  0
VERTEX
  8
0
 10
15.0
 20
0.0
 30
30.5
  0
VERTEX
  8
0
 10
0.0
 20
0.0
 30
30.5
  0
VERTEX
  8
0
 10
0.0
 20
-22.5
 30
30.5
  0
VERTEX
  8
0
 10
3.0
 20
-22.5
 30
30.5
  0
VERTEX
  8
0
 10
3.0
 20
-42.5
 30
30.5
  0
VERTEX
  8
0
 10
0.0
 20
-42.5
 30
30.5
  0
VERTEX
  8
0
 10
7.92766383869e-32
 20
-65.0
 30
30.5
  0
VERTEX
  8
0
 10
15.0
 20
-65.0
 30
30.5
  0
VERTEX
  8
0
 10
15.0
 20
-62.0
 30
30.5
  0
VERTEX
  8
0
 10
30.0
 20
-62.0
 30
30.5
  0
VERTEX
  8
0
 10
30.0
 20
-65.0
 30
30.5
  0
VERTEX
  8
0
 10
63.0
 20
-65.0
 30
30.5
  0
SEQEND
  8
0
  0
CIRCLE
  8
0
 62
7
 10
20.8
 20
-57.5
 30
30.5
 40
1.2
  0
ENDBLK
  0
ENDSEC
  0
SECTION
  2
ENTITIES
  0
INSERT
  2
SKETCH
  8
0
 10
0.0
 20
0.0
 30
0.0
  0
ENDSEC
  0
EOF
